<svg width="626" height="24" viewBox="0 0 626 24" fill="none" xmlns="http://www.w3.org/2000/svg">
<path d="M49.918 5.58L46.57 14.94C46.366 15.492 46.144 16.002 45.904 16.47C45.664 16.938 45.376 17.322 45.04 17.622C44.704 17.922 44.284 18.09 43.78 18.126C43.576 18.138 43.336 18.132 43.06 18.108C42.796 18.096 42.526 18.066 42.25 18.018C41.986 17.97 41.752 17.922 41.548 17.874L41.728 16.704C42.328 16.752 42.796 16.776 43.132 16.776C43.48 16.776 43.75 16.722 43.942 16.614C44.146 16.494 44.32 16.302 44.464 16.038C44.608 15.774 44.776 15.408 44.968 14.94L45.382 13.878L45.562 13.32L48.298 5.58H49.918ZM42.016 5.58L44.518 12.762C44.59 12.954 44.728 13.05 44.932 13.05H45.814L46.048 14.382H44.5C44.164 14.382 43.894 14.316 43.69 14.184C43.498 14.04 43.354 13.824 43.258 13.536L40.378 5.58H42.016ZM54.5527 9.018C54.8167 9.018 55.1107 9.03 55.4347 9.054C55.7707 9.078 56.1067 9.12 56.4427 9.18C56.7787 9.24 57.0907 9.324 57.3787 9.432L57.1807 10.422C56.7847 10.386 56.3647 10.362 55.9207 10.35C55.4887 10.326 55.1167 10.314 54.8047 10.314C54.1207 10.314 53.5687 10.41 53.1487 10.602C52.7407 10.794 52.4467 11.13 52.2667 11.61C52.0867 12.09 51.9967 12.756 51.9967 13.608C51.9967 14.46 52.0867 15.132 52.2667 15.624C52.4467 16.104 52.7407 16.44 53.1487 16.632C53.5687 16.824 54.1207 16.92 54.8047 16.92C54.9847 16.92 55.2187 16.914 55.5067 16.902C55.8067 16.89 56.1187 16.872 56.4427 16.848C56.7787 16.824 57.0967 16.788 57.3967 16.74L57.5407 17.766C57.1087 17.922 56.6287 18.036 56.1007 18.108C55.5847 18.18 55.0687 18.216 54.5527 18.216C53.5447 18.216 52.7347 18.066 52.1227 17.766C51.5107 17.466 51.0667 16.98 50.7907 16.308C50.5267 15.636 50.3947 14.736 50.3947 13.608C50.3947 12.48 50.5267 11.58 50.7907 10.908C51.0667 10.236 51.5107 9.756 52.1227 9.468C52.7347 9.168 53.5447 9.018 54.5527 9.018ZM66.6881 9.234V10.44H63.4841C63.1121 10.44 62.8421 10.524 62.6741 10.692C62.5181 10.848 62.4101 11.13 62.3501 11.538C62.2901 12.066 62.2181 12.606 62.1341 13.158C62.0621 13.71 61.9781 14.244 61.8821 14.76C61.7861 15.276 61.6601 15.738 61.5041 16.146C61.3601 16.566 61.1621 16.92 60.9101 17.208C60.6581 17.496 60.3521 17.712 59.9921 17.856C59.6441 18 59.2301 18.078 58.7501 18.09L58.5881 16.92C58.9121 16.836 59.1701 16.74 59.3621 16.632C59.5661 16.524 59.7221 16.392 59.8301 16.236C59.9501 16.08 60.0521 15.9 60.1361 15.696C60.2441 15.408 60.3401 15.078 60.4241 14.706C60.5081 14.334 60.5801 13.944 60.6401 13.536C60.7001 13.128 60.7481 12.732 60.7841 12.348C60.8321 11.952 60.8741 11.598 60.9101 11.286C60.9941 10.614 61.2101 10.104 61.5581 9.756C61.9181 9.408 62.4641 9.234 63.1961 9.234H66.6881ZM66.9221 9.234V18H65.3921V9.234H66.9221ZM77.5515 9.234L74.0595 18.486C73.9635 18.738 73.8375 19.02 73.6815 19.332C73.5375 19.644 73.3575 19.95 73.1415 20.25C72.9375 20.562 72.6915 20.826 72.4035 21.042C71.9595 21.378 71.4615 21.576 70.9095 21.636C70.3695 21.708 69.7815 21.702 69.1455 21.618L69.2895 20.556C69.6735 20.568 70.0455 20.55 70.4055 20.502C70.7775 20.466 71.1075 20.352 71.3955 20.16C71.6475 19.98 71.8755 19.728 72.0795 19.404C72.2955 19.092 72.4755 18.75 72.6195 18.378L73.0515 17.334C73.1475 17.094 73.2435 16.83 73.3395 16.542C73.4355 16.254 73.5255 15.996 73.6095 15.768L75.9135 9.234H77.5515ZM70.3515 9.234L72.6735 15.768C72.7335 15.948 72.7875 16.128 72.8355 16.308C72.8955 16.476 72.9495 16.65 72.9975 16.83H73.4115L72.8895 18H72.4395C72.3075 18 72.1935 17.964 72.0975 17.892C72.0015 17.82 71.9295 17.724 71.8815 17.604L68.7135 9.234H70.3515ZM81.2636 9.198C82.0316 9.198 82.8056 9.204 83.5856 9.216C84.3776 9.228 85.1336 9.27 85.8536 9.342L85.7996 10.422H81.8936C81.5216 10.422 81.2516 10.506 81.0836 10.674C80.9156 10.842 80.8316 11.118 80.8316 11.502V18H79.3196V11.106C79.3196 10.482 79.4816 10.008 79.8056 9.684C80.1416 9.36 80.6276 9.198 81.2636 9.198ZM95.446 9.234L91.954 18.486C91.858 18.738 91.732 19.02 91.576 19.332C91.432 19.644 91.252 19.95 91.036 20.25C90.832 20.562 90.586 20.826 90.298 21.042C89.854 21.378 89.356 21.576 88.804 21.636C88.264 21.708 87.676 21.702 87.04 21.618L87.184 20.556C87.568 20.568 87.94 20.55 88.3 20.502C88.672 20.466 89.002 20.352 89.29 20.16C89.542 19.98 89.77 19.728 89.974 19.404C90.19 19.092 90.37 18.75 90.514 18.378L90.946 17.334C91.042 17.094 91.138 16.83 91.234 16.542C91.33 16.254 91.42 15.996 91.504 15.768L93.808 9.234H95.446ZM88.246 9.234L90.568 15.768C90.628 15.948 90.682 16.128 90.73 16.308C90.79 16.476 90.844 16.65 90.892 16.83H91.306L90.784 18H90.334C90.202 18 90.088 17.964 89.992 17.892C89.896 17.82 89.824 17.724 89.776 17.604L86.608 9.234H88.246ZM104.984 9.018C105.992 9.018 106.796 9.168 107.396 9.468C107.996 9.768 108.428 10.26 108.692 10.944C108.968 11.616 109.106 12.51 109.106 13.626C109.106 14.742 108.968 15.642 108.692 16.326C108.428 16.998 107.996 17.484 107.396 17.784C106.796 18.084 105.992 18.234 104.984 18.234C103.976 18.234 103.166 18.084 102.554 17.784C101.954 17.484 101.516 16.998 101.24 16.326C100.976 15.642 100.844 14.742 100.844 13.626C100.844 12.51 100.976 11.616 101.24 10.944C101.516 10.26 101.954 9.768 102.554 9.468C103.166 9.168 103.976 9.018 104.984 9.018ZM104.984 10.314C104.348 10.314 103.844 10.416 103.472 10.62C103.1 10.812 102.836 11.148 102.68 11.628C102.524 12.108 102.446 12.774 102.446 13.626C102.446 14.478 102.524 15.144 102.68 15.624C102.836 16.104 103.1 16.446 103.472 16.65C103.844 16.842 104.348 16.938 104.984 16.938C105.62 16.938 106.118 16.842 106.478 16.65C106.85 16.446 107.114 16.104 107.27 15.624C107.426 15.144 107.504 14.478 107.504 13.626C107.504 12.774 107.426 12.108 107.27 11.628C107.114 11.148 106.85 10.812 106.478 10.62C106.118 10.416 105.62 10.314 104.984 10.314ZM118.903 9.234C118.711 9.75 118.525 10.224 118.345 10.656C118.177 11.076 118.003 11.448 117.823 11.772C117.655 12.096 117.463 12.372 117.247 12.6C117.043 12.828 116.803 13.014 116.527 13.158C116.251 13.29 115.927 13.374 115.555 13.41V13.464C115.951 13.5 116.293 13.584 116.581 13.716C116.869 13.848 117.121 14.034 117.337 14.274C117.565 14.502 117.769 14.79 117.949 15.138C118.141 15.486 118.333 15.9 118.525 16.38C118.717 16.848 118.927 17.388 119.155 18H117.553C117.337 17.436 117.139 16.938 116.959 16.506C116.779 16.062 116.599 15.684 116.419 15.372C116.251 15.06 116.065 14.808 115.861 14.616C115.657 14.412 115.417 14.268 115.141 14.184C114.877 14.088 114.565 14.04 114.205 14.04V12.852C114.637 12.852 115.003 12.774 115.303 12.618C115.603 12.45 115.861 12.21 116.077 11.898C116.305 11.586 116.515 11.208 116.707 10.764C116.899 10.32 117.103 9.81 117.319 9.234H118.903ZM113.071 9.234V11.844C113.071 12.108 113.053 12.372 113.017 12.636C112.981 12.9 112.927 13.158 112.855 13.41C112.927 13.662 112.981 13.914 113.017 14.166C113.053 14.418 113.071 14.658 113.071 14.886V18H111.541V9.234H113.071ZM114.781 12.852V14.04H112.621V12.852H114.781ZM125.35 9.018C125.998 9.018 126.544 9.108 126.988 9.288C127.432 9.456 127.768 9.744 127.996 10.152C128.224 10.56 128.338 11.118 128.338 11.826V18H127.132L126.898 16.092L126.808 15.894V11.826C126.796 11.286 126.67 10.902 126.43 10.674C126.19 10.434 125.722 10.314 125.026 10.314C124.558 10.314 123.976 10.338 123.28 10.386C122.596 10.434 121.918 10.488 121.246 10.548L121.102 9.414C121.51 9.342 121.96 9.276 122.452 9.216C122.944 9.156 123.442 9.108 123.946 9.072C124.45 9.036 124.918 9.018 125.35 9.018ZM127.618 12.6L127.6 13.752L123.424 13.77C123.004 13.782 122.704 13.896 122.524 14.112C122.356 14.316 122.272 14.604 122.272 14.976V15.534C122.272 15.99 122.38 16.326 122.596 16.542C122.824 16.746 123.172 16.848 123.64 16.848C123.976 16.848 124.354 16.788 124.774 16.668C125.206 16.536 125.638 16.338 126.07 16.074C126.502 15.81 126.898 15.474 127.258 15.066V16.2C127.138 16.368 126.952 16.566 126.7 16.794C126.46 17.01 126.166 17.226 125.818 17.442C125.482 17.646 125.104 17.82 124.684 17.964C124.264 18.096 123.814 18.162 123.334 18.162C122.818 18.162 122.362 18.072 121.966 17.892C121.57 17.7 121.264 17.424 121.048 17.064C120.832 16.692 120.724 16.242 120.724 15.714V14.76C120.724 14.076 120.934 13.548 121.354 13.176C121.786 12.792 122.386 12.6 123.154 12.6H127.618ZM133.409 9.09C134.381 9.09 135.155 9.156 135.731 9.288C136.307 9.408 136.721 9.636 136.973 9.972C137.237 10.308 137.369 10.794 137.369 11.43C137.369 12.054 137.231 12.534 136.955 12.87C136.691 13.206 136.211 13.404 135.515 13.464V13.518C136.295 13.578 136.847 13.794 137.171 14.166C137.507 14.538 137.675 15.096 137.675 15.84C137.675 16.452 137.549 16.926 137.297 17.262C137.045 17.598 136.643 17.832 136.091 17.964C135.539 18.096 134.813 18.162 133.913 18.162C133.373 18.162 132.797 18.138 132.185 18.09C131.573 18.054 130.991 17.988 130.439 17.892L130.565 16.722C130.961 16.758 131.453 16.794 132.041 16.83C132.641 16.854 133.229 16.866 133.805 16.866C134.693 16.866 135.293 16.776 135.605 16.596C135.929 16.404 136.091 16.044 136.091 15.516C136.091 15.144 136.019 14.856 135.875 14.652C135.743 14.448 135.509 14.304 135.173 14.22C134.849 14.136 134.405 14.094 133.841 14.094H131.735V12.978L133.823 12.96C134.351 12.96 134.759 12.924 135.047 12.852C135.347 12.768 135.557 12.63 135.677 12.438C135.797 12.246 135.857 11.976 135.857 11.628C135.857 11.28 135.779 11.022 135.623 10.854C135.479 10.674 135.233 10.554 134.885 10.494C134.537 10.422 134.051 10.386 133.427 10.386C132.959 10.386 132.491 10.398 132.023 10.422C131.555 10.446 131.159 10.482 130.835 10.53L130.709 9.36C131.201 9.24 131.681 9.168 132.149 9.144C132.629 9.108 133.049 9.09 133.409 9.09ZM143.617 12.636C144.493 12.636 145.177 12.72 145.669 12.888C146.161 13.056 146.509 13.344 146.713 13.752C146.929 14.148 147.037 14.688 147.037 15.372C147.037 16.08 146.929 16.638 146.713 17.046C146.497 17.442 146.155 17.718 145.687 17.874C145.219 18.03 144.607 18.108 143.851 18.108C143.275 18.108 142.777 18.102 142.357 18.09C141.937 18.09 141.553 18.078 141.205 18.054C140.857 18.042 140.491 18.024 140.107 18L140.305 16.848C140.521 16.86 140.923 16.872 141.511 16.884C142.111 16.896 142.813 16.902 143.617 16.902C144.085 16.902 144.451 16.86 144.715 16.776C144.991 16.692 145.189 16.536 145.309 16.308C145.429 16.08 145.489 15.75 145.489 15.318C145.489 14.742 145.357 14.34 145.093 14.112C144.841 13.884 144.349 13.77 143.617 13.77H140.287V12.636H143.617ZM141.547 9.234V18H140.053V9.234H141.547ZM150.187 9.234V18H148.639V9.234H150.187ZM156.59 9.144C157.502 9.144 158.222 9.21 158.75 9.342C159.29 9.474 159.68 9.708 159.92 10.044C160.16 10.38 160.28 10.86 160.28 11.484C160.28 12.108 160.13 12.582 159.83 12.906C159.542 13.218 159.062 13.404 158.39 13.464V13.518C159.206 13.578 159.776 13.806 160.1 14.202C160.424 14.586 160.586 15.132 160.586 15.84C160.586 16.44 160.466 16.908 160.226 17.244C159.998 17.568 159.626 17.796 159.11 17.928C158.606 18.06 157.928 18.126 157.076 18.126C156.464 18.126 155.93 18.12 155.474 18.108C155.018 18.108 154.598 18.096 154.214 18.072C153.842 18.06 153.446 18.042 153.026 18.018L153.242 16.884C153.482 16.896 153.926 16.908 154.574 16.92C155.222 16.92 155.984 16.92 156.86 16.92C157.4 16.92 157.832 16.884 158.156 16.812C158.48 16.728 158.708 16.584 158.84 16.38C158.984 16.176 159.056 15.888 159.056 15.516C159.056 14.952 158.888 14.568 158.552 14.364C158.216 14.148 157.622 14.04 156.77 14.04H153.224V12.942H156.77C157.274 12.942 157.676 12.906 157.976 12.834C158.276 12.762 158.492 12.63 158.624 12.438C158.756 12.234 158.822 11.958 158.822 11.61C158.822 11.274 158.75 11.016 158.606 10.836C158.462 10.656 158.222 10.53 157.886 10.458C157.55 10.386 157.1 10.35 156.536 10.35C156.02 10.338 155.552 10.332 155.132 10.332C154.724 10.332 154.364 10.338 154.052 10.35C153.74 10.35 153.47 10.362 153.242 10.386L153.026 9.252C153.398 9.216 153.752 9.192 154.088 9.18C154.424 9.168 154.79 9.162 155.186 9.162C155.582 9.15 156.05 9.144 156.59 9.144ZM154.466 9.252V18.018H153.026V9.252H154.466ZM167.15 9.018C167.798 9.018 168.344 9.108 168.788 9.288C169.232 9.456 169.568 9.744 169.796 10.152C170.024 10.56 170.138 11.118 170.138 11.826V18H168.932L168.698 16.092L168.608 15.894V11.826C168.596 11.286 168.47 10.902 168.23 10.674C167.99 10.434 167.522 10.314 166.826 10.314C166.358 10.314 165.776 10.338 165.08 10.386C164.396 10.434 163.718 10.488 163.046 10.548L162.902 9.414C163.31 9.342 163.76 9.276 164.252 9.216C164.744 9.156 165.242 9.108 165.746 9.072C166.25 9.036 166.718 9.018 167.15 9.018ZM169.418 12.6L169.4 13.752L165.224 13.77C164.804 13.782 164.504 13.896 164.324 14.112C164.156 14.316 164.072 14.604 164.072 14.976V15.534C164.072 15.99 164.18 16.326 164.396 16.542C164.624 16.746 164.972 16.848 165.44 16.848C165.776 16.848 166.154 16.788 166.574 16.668C167.006 16.536 167.438 16.338 167.87 16.074C168.302 15.81 168.698 15.474 169.058 15.066V16.2C168.938 16.368 168.752 16.566 168.5 16.794C168.26 17.01 167.966 17.226 167.618 17.442C167.282 17.646 166.904 17.82 166.484 17.964C166.064 18.096 165.614 18.162 165.134 18.162C164.618 18.162 164.162 18.072 163.766 17.892C163.37 17.7 163.064 17.424 162.848 17.064C162.632 16.692 162.524 16.242 162.524 15.714V14.76C162.524 14.076 162.734 13.548 163.154 13.176C163.586 12.792 164.186 12.6 164.954 12.6H169.418ZM176.524 9.018C177.844 9.018 178.798 9.258 179.386 9.738C179.986 10.218 180.292 10.932 180.304 11.88C180.304 12.66 180.136 13.272 179.8 13.716C179.476 14.148 178.948 14.364 178.216 14.364H173.086V13.176H177.82C178.204 13.176 178.456 13.044 178.576 12.78C178.708 12.504 178.768 12.204 178.756 11.88C178.756 11.316 178.594 10.914 178.27 10.674C177.946 10.434 177.388 10.314 176.596 10.314C175.96 10.314 175.456 10.41 175.084 10.602C174.724 10.782 174.466 11.106 174.31 11.574C174.166 12.03 174.094 12.672 174.094 13.5C174.094 14.436 174.184 15.15 174.364 15.642C174.556 16.134 174.856 16.47 175.264 16.65C175.672 16.83 176.212 16.92 176.884 16.92C177.364 16.92 177.88 16.902 178.432 16.866C178.996 16.818 179.5 16.764 179.944 16.704L180.088 17.73C179.824 17.838 179.488 17.928 179.08 18C178.672 18.072 178.252 18.126 177.82 18.162C177.4 18.198 177.022 18.216 176.686 18.216C175.69 18.216 174.88 18.066 174.256 17.766C173.644 17.454 173.2 16.962 172.924 16.29C172.648 15.606 172.51 14.706 172.51 13.59C172.51 12.438 172.648 11.532 172.924 10.872C173.212 10.2 173.65 9.726 174.238 9.45C174.826 9.162 175.588 9.018 176.524 9.018ZM186.055 9.234V18H184.525V9.234H186.055ZM189.223 9.234V10.494H181.339V9.234H189.223ZM199.715 5.346C200.615 5.346 201.377 5.454 202.001 5.67C202.637 5.886 203.141 6.246 203.513 6.75C203.897 7.242 204.173 7.902 204.341 8.73C204.521 9.558 204.611 10.578 204.611 11.79C204.611 13.002 204.521 14.022 204.341 14.85C204.173 15.678 203.897 16.344 203.513 16.848C203.141 17.34 202.637 17.694 202.001 17.91C201.377 18.126 200.615 18.234 199.715 18.234C198.815 18.234 198.047 18.126 197.411 17.91C196.787 17.694 196.283 17.34 195.899 16.848C195.515 16.344 195.233 15.678 195.053 14.85C194.885 14.022 194.801 13.002 194.801 11.79C194.801 10.578 194.885 9.558 195.053 8.73C195.233 7.902 195.515 7.242 195.899 6.75C196.283 6.246 196.787 5.886 197.411 5.67C198.047 5.454 198.815 5.346 199.715 5.346ZM199.715 6.768C198.899 6.768 198.251 6.924 197.771 7.236C197.303 7.548 196.967 8.07 196.763 8.802C196.571 9.522 196.475 10.518 196.475 11.79C196.475 13.05 196.571 14.046 196.763 14.778C196.967 15.51 197.303 16.032 197.771 16.344C198.251 16.656 198.899 16.812 199.715 16.812C200.531 16.812 201.173 16.656 201.641 16.344C202.121 16.032 202.457 15.51 202.649 14.778C202.853 14.046 202.955 13.05 202.955 11.79C202.955 10.518 202.853 9.522 202.649 8.802C202.457 8.07 202.121 7.548 201.641 7.236C201.173 6.924 200.531 6.768 199.715 6.768ZM211.739 5.346C212.639 5.346 213.401 5.454 214.025 5.67C214.661 5.886 215.165 6.246 215.537 6.75C215.921 7.242 216.197 7.902 216.365 8.73C216.545 9.558 216.635 10.578 216.635 11.79C216.635 13.002 216.545 14.022 216.365 14.85C216.197 15.678 215.921 16.344 215.537 16.848C215.165 17.34 214.661 17.694 214.025 17.91C213.401 18.126 212.639 18.234 211.739 18.234C210.839 18.234 210.071 18.126 209.435 17.91C208.811 17.694 208.307 17.34 207.923 16.848C207.539 16.344 207.257 15.678 207.077 14.85C206.909 14.022 206.825 13.002 206.825 11.79C206.825 10.578 206.909 9.558 207.077 8.73C207.257 7.902 207.539 7.242 207.923 6.75C208.307 6.246 208.811 5.886 209.435 5.67C210.071 5.454 210.839 5.346 211.739 5.346ZM211.739 6.768C210.923 6.768 210.275 6.924 209.795 7.236C209.327 7.548 208.991 8.07 208.787 8.802C208.595 9.522 208.499 10.518 208.499 11.79C208.499 13.05 208.595 14.046 208.787 14.778C208.991 15.51 209.327 16.032 209.795 16.344C210.275 16.656 210.923 16.812 211.739 16.812C212.555 16.812 213.197 16.656 213.665 16.344C214.145 16.032 214.481 15.51 214.673 14.778C214.877 14.046 214.979 13.05 214.979 11.79C214.979 10.518 214.877 9.522 214.673 8.802C214.481 8.07 214.145 7.548 213.665 7.236C213.197 6.924 212.555 6.768 211.739 6.768ZM223.762 5.346C224.662 5.346 225.424 5.454 226.048 5.67C226.684 5.886 227.188 6.246 227.56 6.75C227.944 7.242 228.22 7.902 228.388 8.73C228.568 9.558 228.658 10.578 228.658 11.79C228.658 13.002 228.568 14.022 228.388 14.85C228.22 15.678 227.944 16.344 227.56 16.848C227.188 17.34 226.684 17.694 226.048 17.91C225.424 18.126 224.662 18.234 223.762 18.234C222.862 18.234 222.094 18.126 221.458 17.91C220.834 17.694 220.33 17.34 219.946 16.848C219.562 16.344 219.28 15.678 219.1 14.85C218.932 14.022 218.848 13.002 218.848 11.79C218.848 10.578 218.932 9.558 219.1 8.73C219.28 7.902 219.562 7.242 219.946 6.75C220.33 6.246 220.834 5.886 221.458 5.67C222.094 5.454 222.862 5.346 223.762 5.346ZM223.762 6.768C222.946 6.768 222.298 6.924 221.818 7.236C221.35 7.548 221.014 8.07 220.81 8.802C220.618 9.522 220.522 10.518 220.522 11.79C220.522 13.05 220.618 14.046 220.81 14.778C221.014 15.51 221.35 16.032 221.818 16.344C222.298 16.656 222.946 16.812 223.762 16.812C224.578 16.812 225.22 16.656 225.688 16.344C226.168 16.032 226.504 15.51 226.696 14.778C226.9 14.046 227.002 13.05 227.002 11.79C227.002 10.518 226.9 9.522 226.696 8.802C226.504 8.07 226.168 7.548 225.688 7.236C225.22 6.924 224.578 6.768 223.762 6.768ZM247.083 5.58C247.515 5.58 247.731 5.802 247.731 6.246L248.253 18H246.669L246.219 6.894H245.841L243.069 16.056C242.973 16.416 242.745 16.596 242.385 16.596H240.963C240.591 16.596 240.351 16.416 240.243 16.056L237.471 6.894H237.111L236.679 18H235.095L235.581 6.246C235.605 5.802 235.827 5.58 236.247 5.58H238.047C238.383 5.58 238.605 5.76 238.713 6.12L241.035 13.698C241.131 13.974 241.209 14.25 241.269 14.526C241.341 14.802 241.419 15.084 241.503 15.372H241.827C241.911 15.084 241.989 14.802 242.061 14.526C242.133 14.25 242.211 13.962 242.295 13.662L244.617 6.12C244.713 5.76 244.941 5.58 245.301 5.58H247.083ZM259.484 5.58C259.244 6.264 259.016 6.9 258.8 7.488C258.584 8.076 258.362 8.604 258.134 9.072C257.918 9.54 257.678 9.948 257.414 10.296C257.162 10.632 256.874 10.902 256.55 11.106C256.226 11.31 255.848 11.436 255.416 11.484V11.556C255.884 11.604 256.292 11.73 256.64 11.934C256.988 12.138 257.294 12.426 257.558 12.798C257.834 13.158 258.086 13.596 258.314 14.112C258.554 14.616 258.788 15.198 259.016 15.858C259.256 16.506 259.52 17.22 259.808 18H258.134C257.798 17.064 257.498 16.236 257.234 15.516C256.97 14.796 256.688 14.19 256.388 13.698C256.1 13.194 255.764 12.816 255.38 12.564C254.996 12.3 254.516 12.168 253.94 12.168V10.89C254.48 10.89 254.936 10.758 255.308 10.494C255.692 10.218 256.028 9.84 256.316 9.36C256.604 8.88 256.868 8.322 257.108 7.686C257.348 7.038 257.6 6.336 257.864 5.58H259.484ZM252.698 5.58V9.468C252.698 9.828 252.68 10.176 252.644 10.512C252.608 10.848 252.554 11.178 252.482 11.502C252.542 11.838 252.59 12.174 252.626 12.51C252.674 12.846 252.698 13.17 252.698 13.482V18H251.132V5.58H252.698ZM254.606 10.89V12.168H252.212V10.89H254.606ZM270.277 5.58C270.037 6.264 269.809 6.9 269.593 7.488C269.377 8.076 269.155 8.604 268.927 9.072C268.711 9.54 268.471 9.948 268.207 10.296C267.955 10.632 267.667 10.902 267.343 11.106C267.019 11.31 266.641 11.436 266.209 11.484V11.556C266.677 11.604 267.085 11.73 267.433 11.934C267.781 12.138 268.087 12.426 268.351 12.798C268.627 13.158 268.879 13.596 269.107 14.112C269.347 14.616 269.581 15.198 269.809 15.858C270.049 16.506 270.313 17.22 270.601 18H268.927C268.591 17.064 268.291 16.236 268.027 15.516C267.763 14.796 267.481 14.19 267.181 13.698C266.893 13.194 266.557 12.816 266.173 12.564C265.789 12.3 265.309 12.168 264.733 12.168V10.89C265.273 10.89 265.729 10.758 266.101 10.494C266.485 10.218 266.821 9.84 267.109 9.36C267.397 8.88 267.661 8.322 267.901 7.686C268.141 7.038 268.393 6.336 268.657 5.58H270.277ZM263.491 5.58V9.468C263.491 9.828 263.473 10.176 263.437 10.512C263.401 10.848 263.347 11.178 263.275 11.502C263.335 11.838 263.383 12.174 263.419 12.51C263.467 12.846 263.491 13.17 263.491 13.482V18H261.925V5.58H263.491ZM265.399 10.89V12.168H263.005V10.89H265.399ZM282.09 9.738L282.9 10.278L280.632 13.482L282.918 16.758L282.108 17.298L279.21 13.662V13.302L282.09 9.738ZM278.832 9.738L279.642 10.278L277.374 13.482L279.66 16.758L278.85 17.298L275.952 13.662V13.302L278.832 9.738ZM287.046 5.58V18H285.462V5.58H287.046ZM292.968 10.674V12.042H286.902V10.674H292.968ZM294.354 5.58V18H292.77V5.58H294.354ZM300.942 9.018C302.262 9.018 303.216 9.258 303.804 9.738C304.404 10.218 304.71 10.932 304.722 11.88C304.722 12.66 304.554 13.272 304.218 13.716C303.894 14.148 303.366 14.364 302.634 14.364H297.504V13.176H302.238C302.622 13.176 302.874 13.044 302.994 12.78C303.126 12.504 303.186 12.204 303.174 11.88C303.174 11.316 303.012 10.914 302.688 10.674C302.364 10.434 301.806 10.314 301.014 10.314C300.378 10.314 299.874 10.41 299.502 10.602C299.142 10.782 298.884 11.106 298.728 11.574C298.584 12.03 298.512 12.672 298.512 13.5C298.512 14.436 298.602 15.15 298.782 15.642C298.974 16.134 299.274 16.47 299.682 16.65C300.09 16.83 300.63 16.92 301.302 16.92C301.782 16.92 302.298 16.902 302.85 16.866C303.414 16.818 303.918 16.764 304.362 16.704L304.506 17.73C304.242 17.838 303.906 17.928 303.498 18C303.09 18.072 302.67 18.126 302.238 18.162C301.818 18.198 301.44 18.216 301.104 18.216C300.108 18.216 299.298 18.066 298.674 17.766C298.062 17.454 297.618 16.962 297.342 16.29C297.066 15.606 296.928 14.706 296.928 13.59C296.928 12.438 297.066 11.532 297.342 10.872C297.63 10.2 298.068 9.726 298.656 9.45C299.244 9.162 300.006 9.018 300.942 9.018ZM316.909 9.234C317.293 9.234 317.485 9.426 317.485 9.81L317.863 18H316.441L316.099 10.404H315.793L313.561 16.542C313.513 16.698 313.441 16.824 313.345 16.92C313.249 17.004 313.117 17.046 312.949 17.046H311.761C311.593 17.046 311.461 17.004 311.365 16.92C311.281 16.824 311.209 16.698 311.149 16.542L308.917 10.404H308.611L308.287 18H306.883L307.243 9.81C307.243 9.426 307.441 9.234 307.837 9.234H309.421C309.589 9.234 309.715 9.276 309.799 9.36C309.895 9.444 309.967 9.57 310.015 9.738L311.833 14.778C311.917 14.994 311.989 15.204 312.049 15.408C312.109 15.612 312.163 15.822 312.211 16.038H312.499C312.559 15.81 312.619 15.594 312.679 15.39C312.739 15.186 312.805 14.982 312.877 14.778L314.695 9.738C314.803 9.402 315.007 9.234 315.307 9.234H316.909ZM324.075 9.018C325.395 9.018 326.349 9.258 326.937 9.738C327.537 10.218 327.843 10.932 327.855 11.88C327.855 12.66 327.687 13.272 327.351 13.716C327.027 14.148 326.499 14.364 325.767 14.364H320.637V13.176H325.371C325.755 13.176 326.007 13.044 326.127 12.78C326.259 12.504 326.319 12.204 326.307 11.88C326.307 11.316 326.145 10.914 325.821 10.674C325.497 10.434 324.939 10.314 324.147 10.314C323.511 10.314 323.007 10.41 322.635 10.602C322.275 10.782 322.017 11.106 321.861 11.574C321.717 12.03 321.645 12.672 321.645 13.5C321.645 14.436 321.735 15.15 321.915 15.642C322.107 16.134 322.407 16.47 322.815 16.65C323.223 16.83 323.763 16.92 324.435 16.92C324.915 16.92 325.431 16.902 325.983 16.866C326.547 16.818 327.051 16.764 327.495 16.704L327.639 17.73C327.375 17.838 327.039 17.928 326.631 18C326.223 18.072 325.803 18.126 325.371 18.162C324.951 18.198 324.573 18.216 324.237 18.216C323.241 18.216 322.431 18.066 321.807 17.766C321.195 17.454 320.751 16.962 320.475 16.29C320.199 15.606 320.061 14.706 320.061 13.59C320.061 12.438 320.199 11.532 320.475 10.872C320.763 10.2 321.201 9.726 321.789 9.45C322.377 9.162 323.139 9.018 324.075 9.018ZM331.707 9.234V18H330.213V9.234H331.707ZM338.781 16.776V18H331.581L331.563 16.776H338.781ZM337.593 9.234L337.575 18H336.063V9.234H337.593ZM338.781 17.91V20.592H337.773L337.611 17.91H338.781ZM348.245 9.234C348.053 9.75 347.867 10.224 347.687 10.656C347.519 11.076 347.345 11.448 347.165 11.772C346.997 12.096 346.805 12.372 346.589 12.6C346.385 12.828 346.145 13.014 345.869 13.158C345.593 13.29 345.269 13.374 344.897 13.41V13.464C345.293 13.5 345.635 13.584 345.923 13.716C346.211 13.848 346.463 14.034 346.679 14.274C346.907 14.502 347.111 14.79 347.291 15.138C347.483 15.486 347.675 15.9 347.867 16.38C348.059 16.848 348.269 17.388 348.497 18H346.895C346.679 17.436 346.481 16.938 346.301 16.506C346.121 16.062 345.941 15.684 345.761 15.372C345.593 15.06 345.407 14.808 345.203 14.616C344.999 14.412 344.759 14.268 344.483 14.184C344.219 14.088 343.907 14.04 343.547 14.04V12.852C343.979 12.852 344.345 12.774 344.645 12.618C344.945 12.45 345.203 12.21 345.419 11.898C345.647 11.586 345.857 11.208 346.049 10.764C346.241 10.32 346.445 9.81 346.661 9.234H348.245ZM342.413 9.234V11.844C342.413 12.108 342.395 12.372 342.359 12.636C342.323 12.9 342.269 13.158 342.197 13.41C342.269 13.662 342.323 13.914 342.359 14.166C342.395 14.418 342.413 14.658 342.413 14.886V18H340.883V9.234H342.413ZM344.123 12.852V14.04H341.963V12.852H344.123ZM354.691 9.018C355.339 9.018 355.885 9.108 356.329 9.288C356.773 9.456 357.109 9.744 357.337 10.152C357.565 10.56 357.679 11.118 357.679 11.826V18H356.473L356.239 16.092L356.149 15.894V11.826C356.137 11.286 356.011 10.902 355.771 10.674C355.531 10.434 355.063 10.314 354.367 10.314C353.899 10.314 353.317 10.338 352.621 10.386C351.937 10.434 351.259 10.488 350.587 10.548L350.443 9.414C350.851 9.342 351.301 9.276 351.793 9.216C352.285 9.156 352.783 9.108 353.287 9.072C353.791 9.036 354.259 9.018 354.691 9.018ZM356.959 12.6L356.941 13.752L352.765 13.77C352.345 13.782 352.045 13.896 351.865 14.112C351.697 14.316 351.613 14.604 351.613 14.976V15.534C351.613 15.99 351.721 16.326 351.937 16.542C352.165 16.746 352.513 16.848 352.981 16.848C353.317 16.848 353.695 16.788 354.115 16.668C354.547 16.536 354.979 16.338 355.411 16.074C355.843 15.81 356.239 15.474 356.599 15.066V16.2C356.479 16.368 356.293 16.566 356.041 16.794C355.801 17.01 355.507 17.226 355.159 17.442C354.823 17.646 354.445 17.82 354.025 17.964C353.605 18.096 353.155 18.162 352.675 18.162C352.159 18.162 351.703 18.072 351.307 17.892C350.911 17.7 350.605 17.424 350.389 17.064C350.173 16.692 350.065 16.242 350.065 15.714V14.76C350.065 14.076 350.275 13.548 350.695 13.176C351.127 12.792 351.727 12.6 352.495 12.6H356.959ZM363.525 9.144C364.185 9.144 364.731 9.15 365.163 9.162C365.595 9.162 365.979 9.174 366.315 9.198C366.663 9.21 367.023 9.234 367.395 9.27L367.179 10.44C367.047 10.416 366.651 10.398 365.991 10.386C365.343 10.374 364.533 10.368 363.561 10.368C362.829 10.368 362.343 10.494 362.103 10.746C361.875 10.986 361.761 11.388 361.761 11.952C361.761 12.54 361.881 12.966 362.121 13.23C362.373 13.482 362.871 13.608 363.615 13.608H367.197L367.233 14.742C367.101 14.742 366.879 14.748 366.567 14.76C366.255 14.76 365.847 14.76 365.343 14.76C364.839 14.76 364.239 14.76 363.543 14.76C363.123 14.76 362.781 14.838 362.517 14.994C362.265 15.15 362.097 15.372 362.013 15.66L361.347 18H359.763L360.555 15.372C360.639 15.12 360.771 14.916 360.951 14.76C361.143 14.604 361.353 14.49 361.581 14.418C361.821 14.334 362.049 14.28 362.265 14.256V14.184C361.785 14.112 361.395 13.974 361.095 13.77C360.807 13.566 360.597 13.296 360.465 12.96C360.333 12.612 360.267 12.204 360.267 11.736C360.267 11.328 360.315 10.962 360.411 10.638C360.519 10.314 360.699 10.044 360.951 9.828C361.203 9.6 361.539 9.432 361.959 9.324C362.379 9.204 362.901 9.144 363.525 9.144ZM367.395 9.27V18H365.901V9.27H367.395ZM379.304 9.018C380.636 9.018 381.698 9.174 382.49 9.486C383.294 9.786 383.876 10.272 384.236 10.944C384.596 11.616 384.776 12.51 384.776 13.626C384.776 14.73 384.596 15.624 384.236 16.308C383.876 16.98 383.294 17.466 382.49 17.766C381.698 18.066 380.636 18.216 379.304 18.216C377.972 18.216 376.904 18.066 376.1 17.766C375.296 17.466 374.714 16.98 374.354 16.308C373.994 15.624 373.814 14.73 373.814 13.626C373.814 12.51 373.994 11.616 374.354 10.944C374.714 10.272 375.296 9.786 376.1 9.486C376.904 9.174 377.972 9.018 379.304 9.018ZM379.286 10.314C378.302 10.314 377.516 10.416 376.928 10.62C376.34 10.812 375.92 11.148 375.668 11.628C375.416 12.108 375.29 12.774 375.29 13.626C375.29 14.466 375.416 15.126 375.668 15.606C375.92 16.086 376.34 16.428 376.928 16.632C377.516 16.824 378.302 16.92 379.286 16.92C380.282 16.92 381.068 16.824 381.644 16.632C382.232 16.428 382.652 16.086 382.904 15.606C383.156 15.126 383.282 14.466 383.282 13.626C383.282 12.774 383.156 12.108 382.904 11.628C382.652 11.148 382.232 10.812 381.644 10.62C381.068 10.416 380.282 10.314 379.286 10.314ZM380.006 5.4V9.27L379.952 9.612V17.46L380.006 17.856V21.618H378.584V17.856L378.638 17.46V9.63L378.584 9.27V5.4H380.006ZM394.888 9.234V18H393.502V12.186C393.502 11.994 393.508 11.808 393.52 11.628C393.532 11.436 393.544 11.232 393.556 11.016H393.52C393.448 11.184 393.352 11.364 393.232 11.556C393.124 11.736 393.016 11.898 392.908 12.042L388.444 18H387.184V9.234H388.57V15.048C388.57 15.24 388.564 15.432 388.552 15.624C388.552 15.804 388.54 16.002 388.516 16.218H388.552C388.648 16.038 388.75 15.858 388.858 15.678C388.966 15.498 389.074 15.342 389.182 15.21L393.646 9.234H394.888ZM399.26 9.234V18H397.748V9.234H399.26ZM404.03 12.762V13.932H399.152V12.762H404.03ZM405.38 9.234V18H403.868V9.234H405.38ZM412.383 9.018C413.031 9.018 413.577 9.108 414.021 9.288C414.465 9.456 414.801 9.744 415.029 10.152C415.257 10.56 415.371 11.118 415.371 11.826V18H414.165L413.931 16.092L413.841 15.894V11.826C413.829 11.286 413.703 10.902 413.463 10.674C413.223 10.434 412.755 10.314 412.059 10.314C411.591 10.314 411.009 10.338 410.313 10.386C409.629 10.434 408.951 10.488 408.279 10.548L408.135 9.414C408.543 9.342 408.993 9.276 409.485 9.216C409.977 9.156 410.475 9.108 410.979 9.072C411.483 9.036 411.951 9.018 412.383 9.018ZM414.651 12.6L414.633 13.752L410.457 13.77C410.037 13.782 409.737 13.896 409.557 14.112C409.389 14.316 409.305 14.604 409.305 14.976V15.534C409.305 15.99 409.413 16.326 409.629 16.542C409.857 16.746 410.205 16.848 410.673 16.848C411.009 16.848 411.387 16.788 411.807 16.668C412.239 16.536 412.671 16.338 413.103 16.074C413.535 15.81 413.931 15.474 414.291 15.066V16.2C414.171 16.368 413.985 16.566 413.733 16.794C413.493 17.01 413.199 17.226 412.851 17.442C412.515 17.646 412.137 17.82 411.717 17.964C411.297 18.096 410.847 18.162 410.367 18.162C409.851 18.162 409.395 18.072 408.999 17.892C408.603 17.7 408.297 17.424 408.081 17.064C407.865 16.692 407.757 16.242 407.757 15.714V14.76C407.757 14.076 407.967 13.548 408.387 13.176C408.819 12.792 409.419 12.6 410.187 12.6H414.651ZM419.668 9.234V18H418.156V9.234H419.668ZM424.438 12.762V13.932H419.56V12.762H424.438ZM425.788 9.234V18H424.276V9.234H425.788ZM432.377 9.018C432.641 9.018 432.935 9.03 433.259 9.054C433.595 9.078 433.931 9.12 434.267 9.18C434.603 9.24 434.915 9.324 435.203 9.432L435.005 10.422C434.609 10.386 434.189 10.362 433.745 10.35C433.313 10.326 432.941 10.314 432.629 10.314C431.945 10.314 431.393 10.41 430.973 10.602C430.565 10.794 430.271 11.13 430.091 11.61C429.911 12.09 429.821 12.756 429.821 13.608C429.821 14.46 429.911 15.132 430.091 15.624C430.271 16.104 430.565 16.44 430.973 16.632C431.393 16.824 431.945 16.92 432.629 16.92C432.809 16.92 433.043 16.914 433.331 16.902C433.631 16.89 433.943 16.872 434.267 16.848C434.603 16.824 434.921 16.788 435.221 16.74L435.365 17.766C434.933 17.922 434.453 18.036 433.925 18.108C433.409 18.18 432.893 18.216 432.377 18.216C431.369 18.216 430.559 18.066 429.947 17.766C429.335 17.466 428.891 16.98 428.615 16.308C428.351 15.636 428.219 14.736 428.219 13.608C428.219 12.48 428.351 11.58 428.615 10.908C428.891 10.236 429.335 9.756 429.947 9.468C430.559 9.168 431.369 9.018 432.377 9.018ZM441.078 9.018C442.086 9.018 442.89 9.168 443.49 9.468C444.09 9.768 444.522 10.26 444.786 10.944C445.062 11.616 445.2 12.51 445.2 13.626C445.2 14.742 445.062 15.642 444.786 16.326C444.522 16.998 444.09 17.484 443.49 17.784C442.89 18.084 442.086 18.234 441.078 18.234C440.07 18.234 439.26 18.084 438.648 17.784C438.048 17.484 437.61 16.998 437.334 16.326C437.07 15.642 436.938 14.742 436.938 13.626C436.938 12.51 437.07 11.616 437.334 10.944C437.61 10.26 438.048 9.768 438.648 9.468C439.26 9.168 440.07 9.018 441.078 9.018ZM441.078 10.314C440.442 10.314 439.938 10.416 439.566 10.62C439.194 10.812 438.93 11.148 438.774 11.628C438.618 12.108 438.54 12.774 438.54 13.626C438.54 14.478 438.618 15.144 438.774 15.624C438.93 16.104 439.194 16.446 439.566 16.65C439.938 16.842 440.442 16.938 441.078 16.938C441.714 16.938 442.212 16.842 442.572 16.65C442.944 16.446 443.208 16.104 443.364 15.624C443.52 15.144 443.598 14.478 443.598 13.626C443.598 12.774 443.52 12.108 443.364 11.628C443.208 11.148 442.944 10.812 442.572 10.62C442.212 10.416 441.714 10.314 441.078 10.314ZM451.199 9.144C452.111 9.144 452.831 9.21 453.359 9.342C453.899 9.474 454.289 9.708 454.529 10.044C454.769 10.38 454.889 10.86 454.889 11.484C454.889 12.108 454.739 12.582 454.439 12.906C454.151 13.218 453.671 13.404 452.999 13.464V13.518C453.815 13.578 454.385 13.806 454.709 14.202C455.033 14.586 455.195 15.132 455.195 15.84C455.195 16.44 455.075 16.908 454.835 17.244C454.607 17.568 454.235 17.796 453.719 17.928C453.215 18.06 452.537 18.126 451.685 18.126C451.073 18.126 450.539 18.12 450.083 18.108C449.627 18.108 449.207 18.096 448.823 18.072C448.451 18.06 448.055 18.042 447.635 18.018L447.851 16.884C448.091 16.896 448.535 16.908 449.183 16.92C449.831 16.92 450.593 16.92 451.469 16.92C452.009 16.92 452.441 16.884 452.765 16.812C453.089 16.728 453.317 16.584 453.449 16.38C453.593 16.176 453.665 15.888 453.665 15.516C453.665 14.952 453.497 14.568 453.161 14.364C452.825 14.148 452.231 14.04 451.379 14.04H447.833V12.942H451.379C451.883 12.942 452.285 12.906 452.585 12.834C452.885 12.762 453.101 12.63 453.233 12.438C453.365 12.234 453.431 11.958 453.431 11.61C453.431 11.274 453.359 11.016 453.215 10.836C453.071 10.656 452.831 10.53 452.495 10.458C452.159 10.386 451.709 10.35 451.145 10.35C450.629 10.338 450.161 10.332 449.741 10.332C449.333 10.332 448.973 10.338 448.661 10.35C448.349 10.35 448.079 10.362 447.851 10.386L447.635 9.252C448.007 9.216 448.361 9.192 448.697 9.18C449.033 9.168 449.399 9.162 449.795 9.162C450.191 9.15 450.659 9.144 451.199 9.144ZM449.075 9.252V18.018H447.635V9.252H449.075ZM461.76 9.018C462.408 9.018 462.954 9.108 463.398 9.288C463.842 9.456 464.178 9.744 464.406 10.152C464.634 10.56 464.748 11.118 464.748 11.826V18H463.542L463.308 16.092L463.218 15.894V11.826C463.206 11.286 463.08 10.902 462.84 10.674C462.6 10.434 462.132 10.314 461.436 10.314C460.968 10.314 460.386 10.338 459.69 10.386C459.006 10.434 458.328 10.488 457.656 10.548L457.512 9.414C457.92 9.342 458.37 9.276 458.862 9.216C459.354 9.156 459.852 9.108 460.356 9.072C460.86 9.036 461.328 9.018 461.76 9.018ZM464.028 12.6L464.01 13.752L459.834 13.77C459.414 13.782 459.114 13.896 458.934 14.112C458.766 14.316 458.682 14.604 458.682 14.976V15.534C458.682 15.99 458.79 16.326 459.006 16.542C459.234 16.746 459.582 16.848 460.05 16.848C460.386 16.848 460.764 16.788 461.184 16.668C461.616 16.536 462.048 16.338 462.48 16.074C462.912 15.81 463.308 15.474 463.668 15.066V16.2C463.548 16.368 463.362 16.566 463.11 16.794C462.87 17.01 462.576 17.226 462.228 17.442C461.892 17.646 461.514 17.82 461.094 17.964C460.674 18.096 460.224 18.162 459.744 18.162C459.228 18.162 458.772 18.072 458.376 17.892C457.98 17.7 457.674 17.424 457.458 17.064C457.242 16.692 457.134 16.242 457.134 15.714V14.76C457.134 14.076 457.344 13.548 457.764 13.176C458.196 12.792 458.796 12.6 459.564 12.6H464.028ZM470.593 9.144C471.253 9.144 471.799 9.15 472.231 9.162C472.663 9.162 473.047 9.174 473.383 9.198C473.731 9.21 474.091 9.234 474.463 9.27L474.247 10.44C474.115 10.416 473.719 10.398 473.059 10.386C472.411 10.374 471.601 10.368 470.629 10.368C469.897 10.368 469.411 10.494 469.171 10.746C468.943 10.986 468.829 11.388 468.829 11.952C468.829 12.54 468.949 12.966 469.189 13.23C469.441 13.482 469.939 13.608 470.683 13.608H474.265L474.301 14.742C474.169 14.742 473.947 14.748 473.635 14.76C473.323 14.76 472.915 14.76 472.411 14.76C471.907 14.76 471.307 14.76 470.611 14.76C470.191 14.76 469.849 14.838 469.585 14.994C469.333 15.15 469.165 15.372 469.081 15.66L468.415 18H466.831L467.623 15.372C467.707 15.12 467.839 14.916 468.019 14.76C468.211 14.604 468.421 14.49 468.649 14.418C468.889 14.334 469.117 14.28 469.333 14.256V14.184C468.853 14.112 468.463 13.974 468.163 13.77C467.875 13.566 467.665 13.296 467.533 12.96C467.401 12.612 467.335 12.204 467.335 11.736C467.335 11.328 467.383 10.962 467.479 10.638C467.587 10.314 467.767 10.044 468.019 9.828C468.271 9.6 468.607 9.432 469.027 9.324C469.447 9.204 469.969 9.144 470.593 9.144ZM474.463 9.27V18H472.969V9.27H474.463ZM488.677 9.234C488.485 9.75 488.299 10.224 488.119 10.656C487.951 11.076 487.777 11.448 487.597 11.772C487.429 12.096 487.237 12.372 487.021 12.6C486.817 12.828 486.577 13.014 486.301 13.158C486.025 13.29 485.701 13.374 485.329 13.41V13.464C485.725 13.5 486.067 13.584 486.355 13.716C486.643 13.848 486.895 14.034 487.111 14.274C487.339 14.502 487.543 14.79 487.723 15.138C487.915 15.486 488.107 15.9 488.299 16.38C488.491 16.848 488.701 17.388 488.929 18H487.327C487.111 17.436 486.913 16.938 486.733 16.506C486.553 16.062 486.373 15.684 486.193 15.372C486.025 15.06 485.839 14.808 485.635 14.616C485.431 14.412 485.191 14.268 484.915 14.184C484.651 14.088 484.339 14.04 483.979 14.04V12.852C484.411 12.852 484.777 12.774 485.077 12.618C485.377 12.45 485.635 12.21 485.851 11.898C486.079 11.586 486.289 11.208 486.481 10.764C486.673 10.32 486.877 9.81 487.093 9.234H488.677ZM482.845 9.234V11.844C482.845 12.108 482.827 12.372 482.791 12.636C482.755 12.9 482.701 13.158 482.629 13.41C482.701 13.662 482.755 13.914 482.791 14.166C482.827 14.418 482.845 14.658 482.845 14.886V18H481.315V9.234H482.845ZM484.555 12.852V14.04H482.395V12.852H484.555ZM494.621 9.018C495.629 9.018 496.433 9.168 497.033 9.468C497.633 9.768 498.065 10.26 498.329 10.944C498.605 11.616 498.743 12.51 498.743 13.626C498.743 14.742 498.605 15.642 498.329 16.326C498.065 16.998 497.633 17.484 497.033 17.784C496.433 18.084 495.629 18.234 494.621 18.234C493.613 18.234 492.803 18.084 492.191 17.784C491.591 17.484 491.153 16.998 490.877 16.326C490.613 15.642 490.481 14.742 490.481 13.626C490.481 12.51 490.613 11.616 490.877 10.944C491.153 10.26 491.591 9.768 492.191 9.468C492.803 9.168 493.613 9.018 494.621 9.018ZM494.621 10.314C493.985 10.314 493.481 10.416 493.109 10.62C492.737 10.812 492.473 11.148 492.317 11.628C492.161 12.108 492.083 12.774 492.083 13.626C492.083 14.478 492.161 15.144 492.317 15.624C492.473 16.104 492.737 16.446 493.109 16.65C493.481 16.842 493.985 16.938 494.621 16.938C495.257 16.938 495.755 16.842 496.115 16.65C496.487 16.446 496.751 16.104 496.907 15.624C497.063 15.144 497.141 14.478 497.141 13.626C497.141 12.774 497.063 12.108 496.907 11.628C496.751 11.148 496.487 10.812 496.115 10.62C495.755 10.416 495.257 10.314 494.621 10.314ZM511.024 9.234C511.408 9.234 511.6 9.426 511.6 9.81L511.978 18H510.556L510.214 10.404H509.908L507.676 16.542C507.628 16.698 507.556 16.824 507.46 16.92C507.364 17.004 507.232 17.046 507.064 17.046H505.876C505.708 17.046 505.576 17.004 505.48 16.92C505.396 16.824 505.324 16.698 505.264 16.542L503.032 10.404H502.726L502.402 18H500.998L501.358 9.81C501.358 9.426 501.556 9.234 501.952 9.234H503.536C503.704 9.234 503.83 9.276 503.914 9.36C504.01 9.444 504.082 9.57 504.13 9.738L505.948 14.778C506.032 14.994 506.104 15.204 506.164 15.408C506.224 15.612 506.278 15.822 506.326 16.038H506.614C506.674 15.81 506.734 15.594 506.794 15.39C506.854 15.186 506.92 14.982 506.992 14.778L508.81 9.738C508.918 9.402 509.122 9.234 509.422 9.234H511.024ZM522.149 9.234V18H520.637V9.234H522.149ZM516.137 9.234V18H514.643V9.234H516.137ZM520.799 9.234L520.781 10.476H516.047V9.234H520.799ZM529.154 9.018C529.802 9.018 530.348 9.108 530.792 9.288C531.236 9.456 531.572 9.744 531.8 10.152C532.028 10.56 532.142 11.118 532.142 11.826V18H530.936L530.702 16.092L530.612 15.894V11.826C530.6 11.286 530.474 10.902 530.234 10.674C529.994 10.434 529.526 10.314 528.83 10.314C528.362 10.314 527.78 10.338 527.084 10.386C526.4 10.434 525.722 10.488 525.05 10.548L524.906 9.414C525.314 9.342 525.764 9.276 526.256 9.216C526.748 9.156 527.246 9.108 527.75 9.072C528.254 9.036 528.722 9.018 529.154 9.018ZM531.422 12.6L531.404 13.752L527.228 13.77C526.808 13.782 526.508 13.896 526.328 14.112C526.16 14.316 526.076 14.604 526.076 14.976V15.534C526.076 15.99 526.184 16.326 526.4 16.542C526.628 16.746 526.976 16.848 527.444 16.848C527.78 16.848 528.158 16.788 528.578 16.668C529.01 16.536 529.442 16.338 529.874 16.074C530.306 15.81 530.702 15.474 531.062 15.066V16.2C530.942 16.368 530.756 16.566 530.504 16.794C530.264 17.01 529.97 17.226 529.622 17.442C529.286 17.646 528.908 17.82 528.488 17.964C528.068 18.096 527.618 18.162 527.138 18.162C526.622 18.162 526.166 18.072 525.77 17.892C525.374 17.7 525.068 17.424 524.852 17.064C524.636 16.692 524.528 16.242 524.528 15.714V14.76C524.528 14.076 524.738 13.548 525.158 13.176C525.59 12.792 526.19 12.6 526.958 12.6H531.422ZM536.44 9.234V18H534.928V9.234H536.44ZM541.21 12.762V13.932H536.332V12.762H541.21ZM542.56 9.234V18H541.048V9.234H542.56ZM553.108 9.234V18H551.722V12.186C551.722 11.994 551.728 11.808 551.74 11.628C551.752 11.436 551.764 11.232 551.776 11.016H551.74C551.668 11.184 551.572 11.364 551.452 11.556C551.344 11.736 551.236 11.898 551.128 12.042L546.664 18H545.404V9.234H546.79V15.048C546.79 15.24 546.784 15.432 546.772 15.624C546.772 15.804 546.76 16.002 546.736 16.218H546.772C546.868 16.038 546.97 15.858 547.078 15.678C547.186 15.498 547.294 15.342 547.402 15.21L551.866 9.234H553.108ZM559.029 9.144C559.689 9.144 560.235 9.15 560.667 9.162C561.099 9.162 561.483 9.174 561.819 9.198C562.167 9.21 562.527 9.234 562.899 9.27L562.683 10.44C562.551 10.416 562.155 10.398 561.495 10.386C560.847 10.374 560.037 10.368 559.065 10.368C558.333 10.368 557.847 10.494 557.607 10.746C557.379 10.986 557.265 11.388 557.265 11.952C557.265 12.54 557.385 12.966 557.625 13.23C557.877 13.482 558.375 13.608 559.119 13.608H562.701L562.737 14.742C562.605 14.742 562.383 14.748 562.071 14.76C561.759 14.76 561.351 14.76 560.847 14.76C560.343 14.76 559.743 14.76 559.047 14.76C558.627 14.76 558.285 14.838 558.021 14.994C557.769 15.15 557.601 15.372 557.517 15.66L556.851 18H555.267L556.059 15.372C556.143 15.12 556.275 14.916 556.455 14.76C556.647 14.604 556.857 14.49 557.085 14.418C557.325 14.334 557.553 14.28 557.769 14.256V14.184C557.289 14.112 556.899 13.974 556.599 13.77C556.311 13.566 556.101 13.296 555.969 12.96C555.837 12.612 555.771 12.204 555.771 11.736C555.771 11.328 555.819 10.962 555.915 10.638C556.023 10.314 556.203 10.044 556.455 9.828C556.707 9.6 557.043 9.432 557.463 9.324C557.883 9.204 558.405 9.144 559.029 9.144ZM562.899 9.27V18H561.405V9.27H562.899ZM566.102 9.738L568.982 13.302V13.662L566.084 17.298L565.274 16.758L567.56 13.482L565.292 10.278L566.102 9.738ZM569.378 9.738L572.258 13.302V13.662L569.36 17.298L568.55 16.758L570.836 13.482L568.568 10.278L569.378 9.738Z" fill="#828282"/>
<path d="M11.97 2C6.44997 2 1.96997 6.48 1.96997 12C1.96997 17.52 6.44997 22 11.97 22C17.49 22 21.97 17.52 21.97 12C21.97 6.48 17.5 2 11.97 2ZM15.72 12.35L12 16.58L11.56 17.08C10.95 17.77 10.45 17.59 10.45 16.66V12.7H8.74997C7.97997 12.7 7.76997 12.23 8.27997 11.65L12 7.42L12.44 6.92C13.05 6.23 13.55 6.41 13.55 7.34V11.3H15.25C16.02 11.3 16.23 11.77 15.72 12.35Z" fill="#292D32"/>
</svg>
